# xmcd
# 
# Track frame offsets:
#     150
#     26328
#     51478
#     72825
#     94702
# 
# Disc length: 1590
# 
# Revision: 0
# Processed by: cddbd v1.5.2PL0 Copyright (c) Steve Scherf et al.
# Submitted via: BonkEnc v1.0.15
# 
DISCID=3b063405
DTITLE=Glint - Glint EP
DYEAR=0
DGENRE=Rock
TTITLE0=Kernel Panic
TTITLE1=Hold Still
TTITLE2=Freak
TTITLE3=Friends
TTITLE4=Damaged Goods
EXTD=
EXTT0=
EXTT1=
EXTT2=
EXTT3=
EXTT4=
PLAYORDER=
